<svg xmlns="http://www.w3.org/2000/svg" xmlns:xlink="http://www.w3.org/1999/xlink" width="200" zoomAndPan="magnify" viewBox="0 0 150 44.999999" height="60" preserveAspectRatio="xMidYMid meet" version="1.0"><defs><g/><clipPath id="ce8df121b0"><path d="M 7.050781 7.398438 L 38 7.398438 L 38 37.398438 L 7.050781 37.398438 Z M 7.050781 7.398438 " clip-rule="nonzero"/></clipPath></defs><rect x="-15" width="180" fill="#ffffff" y="-4.5" height="53.999999" fill-opacity="1"/><rect x="-15" width="180" fill="#ffffff" y="-4.5" height="53.999999" fill-opacity="1"/><g fill="#000000" fill-opacity="1"><g transform="translate(41.574628, 18.528783)"><g><path d="M 3.359375 -8.375 L 0.0625 -8.375 L 0.0625 -10.328125 L 9.0625 -10.328125 L 9.0625 -8.375 L 5.75 -8.375 L 5.75 0 L 3.359375 0 Z M 3.359375 -8.375 "/></g></g></g><g fill="#000000" fill-opacity="1"><g transform="translate(51.717609, 18.528783)"><g><path d="M 6.21875 0.171875 C 5.144531 0.171875 4.175781 -0.0546875 3.3125 -0.515625 C 2.457031 -0.972656 1.785156 -1.609375 1.296875 -2.421875 C 0.816406 -3.234375 0.578125 -4.144531 0.578125 -5.15625 C 0.578125 -6.175781 0.816406 -7.085938 1.296875 -7.890625 C 1.785156 -8.703125 2.457031 -9.335938 3.3125 -9.796875 C 4.175781 -10.265625 5.144531 -10.5 6.21875 -10.5 C 7.289062 -10.5 8.253906 -10.265625 9.109375 -9.796875 C 9.972656 -9.335938 10.648438 -8.703125 11.140625 -7.890625 C 11.628906 -7.085938 11.875 -6.175781 11.875 -5.15625 C 11.875 -4.144531 11.628906 -3.234375 11.140625 -2.421875 C 10.648438 -1.609375 9.972656 -0.972656 9.109375 -0.515625 C 8.253906 -0.0546875 7.289062 0.171875 6.21875 0.171875 Z M 6.21875 -1.859375 C 6.832031 -1.859375 7.382812 -2 7.875 -2.28125 C 8.363281 -2.5625 8.75 -2.953125 9.03125 -3.453125 C 9.3125 -3.953125 9.453125 -4.519531 9.453125 -5.15625 C 9.453125 -5.800781 9.3125 -6.375 9.03125 -6.875 C 8.75 -7.375 8.363281 -7.765625 7.875 -8.046875 C 7.382812 -8.328125 6.832031 -8.46875 6.21875 -8.46875 C 5.613281 -8.46875 5.0625 -8.328125 4.5625 -8.046875 C 4.070312 -7.765625 3.6875 -7.375 3.40625 -6.875 C 3.132812 -6.375 3 -5.800781 3 -5.15625 C 3 -4.519531 3.132812 -3.953125 3.40625 -3.453125 C 3.6875 -2.953125 4.070312 -2.5625 4.5625 -2.28125 C 5.0625 -2 5.613281 -1.859375 6.21875 -1.859375 Z M 6.21875 -1.859375 "/></g></g></g><g fill="#000000" fill-opacity="1"><g transform="translate(65.192305, 18.528783)"><g><path d="M 1.21875 -10.328125 L 5.921875 -10.328125 C 7.035156 -10.328125 8.019531 -10.113281 8.875 -9.6875 C 9.738281 -9.257812 10.410156 -8.65625 10.890625 -7.875 C 11.367188 -7.101562 11.609375 -6.195312 11.609375 -5.15625 C 11.609375 -4.125 11.367188 -3.21875 10.890625 -2.4375 C 10.410156 -1.664062 9.738281 -1.066406 8.875 -0.640625 C 8.019531 -0.210938 7.035156 0 5.921875 0 L 1.21875 0 Z M 5.796875 -1.96875 C 6.828125 -1.96875 7.648438 -2.253906 8.265625 -2.828125 C 8.878906 -3.398438 9.1875 -4.175781 9.1875 -5.15625 C 9.1875 -6.144531 8.878906 -6.925781 8.265625 -7.5 C 7.648438 -8.070312 6.828125 -8.359375 5.796875 -8.359375 L 3.609375 -8.359375 L 3.609375 -1.96875 Z M 5.796875 -1.96875 "/></g></g></g><g fill="#000000" fill-opacity="1"><g transform="translate(78.40165, 18.528783)"><g><path d="M 6.21875 0.171875 C 5.144531 0.171875 4.175781 -0.0546875 3.3125 -0.515625 C 2.457031 -0.972656 1.785156 -1.609375 1.296875 -2.421875 C 0.816406 -3.234375 0.578125 -4.144531 0.578125 -5.15625 C 0.578125 -6.175781 0.816406 -7.085938 1.296875 -7.890625 C 1.785156 -8.703125 2.457031 -9.335938 3.3125 -9.796875 C 4.175781 -10.265625 5.144531 -10.5 6.21875 -10.5 C 7.289062 -10.5 8.253906 -10.265625 9.109375 -9.796875 C 9.972656 -9.335938 10.648438 -8.703125 11.140625 -7.890625 C 11.628906 -7.085938 11.875 -6.175781 11.875 -5.15625 C 11.875 -4.144531 11.628906 -3.234375 11.140625 -2.421875 C 10.648438 -1.609375 9.972656 -0.972656 9.109375 -0.515625 C 8.253906 -0.0546875 7.289062 0.171875 6.21875 0.171875 Z M 6.21875 -1.859375 C 6.832031 -1.859375 7.382812 -2 7.875 -2.28125 C 8.363281 -2.5625 8.75 -2.953125 9.03125 -3.453125 C 9.3125 -3.953125 9.453125 -4.519531 9.453125 -5.15625 C 9.453125 -5.800781 9.3125 -6.375 9.03125 -6.875 C 8.75 -7.375 8.363281 -7.765625 7.875 -8.046875 C 7.382812 -8.328125 6.832031 -8.46875 6.21875 -8.46875 C 5.613281 -8.46875 5.0625 -8.328125 4.5625 -8.046875 C 4.070312 -7.765625 3.6875 -7.375 3.40625 -6.875 C 3.132812 -6.375 3 -5.800781 3 -5.15625 C 3 -4.519531 3.132812 -3.953125 3.40625 -3.453125 C 3.6875 -2.953125 4.070312 -2.5625 4.5625 -2.28125 C 5.0625 -2 5.613281 -1.859375 6.21875 -1.859375 Z M 6.21875 -1.859375 "/></g></g></g><g fill="#000000" fill-opacity="1"><g transform="translate(91.876346, 18.528783)"><g><path d="M 0 0 L 7.375 0 L 7.375 1.328125 L 0 1.328125 Z M 0 0 "/></g></g></g><g fill="#000000" fill-opacity="1"><g transform="translate(100.279754, 18.528783)"><g><path d="M 4.265625 -8.046875 C 5.492188 -8.046875 6.4375 -7.753906 7.09375 -7.171875 C 7.75 -6.585938 8.078125 -5.707031 8.078125 -4.53125 L 8.078125 0 L 5.921875 0 L 5.921875 -0.984375 C 5.492188 -0.242188 4.691406 0.125 3.515625 0.125 C 2.898438 0.125 2.367188 0.0195312 1.921875 -0.1875 C 1.472656 -0.394531 1.128906 -0.679688 0.890625 -1.046875 C 0.660156 -1.410156 0.546875 -1.820312 0.546875 -2.28125 C 0.546875 -3.019531 0.820312 -3.597656 1.375 -4.015625 C 1.9375 -4.441406 2.796875 -4.65625 3.953125 -4.65625 L 5.78125 -4.65625 C 5.78125 -5.15625 5.628906 -5.539062 5.328125 -5.8125 C 5.023438 -6.082031 4.566406 -6.21875 3.953125 -6.21875 C 3.523438 -6.21875 3.109375 -6.148438 2.703125 -6.015625 C 2.296875 -5.890625 1.953125 -5.710938 1.671875 -5.484375 L 0.84375 -7.09375 C 1.269531 -7.394531 1.785156 -7.628906 2.390625 -7.796875 C 2.992188 -7.960938 3.617188 -8.046875 4.265625 -8.046875 Z M 4.078125 -1.4375 C 4.472656 -1.4375 4.820312 -1.523438 5.125 -1.703125 C 5.4375 -1.878906 5.65625 -2.144531 5.78125 -2.5 L 5.78125 -3.3125 L 4.203125 -3.3125 C 3.253906 -3.3125 2.78125 -3.003906 2.78125 -2.390625 C 2.78125 -2.097656 2.894531 -1.863281 3.125 -1.6875 C 3.363281 -1.519531 3.679688 -1.4375 4.078125 -1.4375 Z M 4.078125 -1.4375 "/></g></g></g><g fill="#000000" fill-opacity="1"><g transform="translate(110.407992, 18.528783)"><g><path d="M 5.75 -8.046875 C 6.488281 -8.046875 7.160156 -7.875 7.765625 -7.53125 C 8.367188 -7.195312 8.84375 -6.722656 9.1875 -6.109375 C 9.53125 -5.492188 9.703125 -4.78125 9.703125 -3.96875 C 9.703125 -3.15625 9.53125 -2.441406 9.1875 -1.828125 C 8.84375 -1.210938 8.367188 -0.734375 7.765625 -0.390625 C 7.160156 -0.046875 6.488281 0.125 5.75 0.125 C 4.738281 0.125 3.941406 -0.195312 3.359375 -0.84375 L 3.359375 2.859375 L 1.0625 2.859375 L 1.0625 -7.9375 L 3.265625 -7.9375 L 3.265625 -7.015625 C 3.828125 -7.703125 4.65625 -8.046875 5.75 -8.046875 Z M 5.359375 -1.765625 C 5.941406 -1.765625 6.421875 -1.960938 6.796875 -2.359375 C 7.179688 -2.765625 7.375 -3.300781 7.375 -3.96875 C 7.375 -4.632812 7.179688 -5.164062 6.796875 -5.5625 C 6.421875 -5.96875 5.941406 -6.171875 5.359375 -6.171875 C 4.765625 -6.171875 4.273438 -5.96875 3.890625 -5.5625 C 3.515625 -5.164062 3.328125 -4.632812 3.328125 -3.96875 C 3.328125 -3.300781 3.515625 -2.765625 3.890625 -2.359375 C 4.273438 -1.960938 4.765625 -1.765625 5.359375 -1.765625 Z M 5.359375 -1.765625 "/></g></g></g><g fill="#000000" fill-opacity="1"><g transform="translate(121.612398, 18.528783)"><g><path d="M 5.75 -8.046875 C 6.488281 -8.046875 7.160156 -7.875 7.765625 -7.53125 C 8.367188 -7.195312 8.84375 -6.722656 9.1875 -6.109375 C 9.53125 -5.492188 9.703125 -4.78125 9.703125 -3.96875 C 9.703125 -3.15625 9.53125 -2.441406 9.1875 -1.828125 C 8.84375 -1.210938 8.367188 -0.734375 7.765625 -0.390625 C 7.160156 -0.046875 6.488281 0.125 5.75 0.125 C 4.738281 0.125 3.941406 -0.195312 3.359375 -0.84375 L 3.359375 2.859375 L 1.0625 2.859375 L 1.0625 -7.9375 L 3.265625 -7.9375 L 3.265625 -7.015625 C 3.828125 -7.703125 4.65625 -8.046875 5.75 -8.046875 Z M 5.359375 -1.765625 C 5.941406 -1.765625 6.421875 -1.960938 6.796875 -2.359375 C 7.179688 -2.765625 7.375 -3.300781 7.375 -3.96875 C 7.375 -4.632812 7.179688 -5.164062 6.796875 -5.5625 C 6.421875 -5.96875 5.941406 -6.171875 5.359375 -6.171875 C 4.765625 -6.171875 4.273438 -5.96875 3.890625 -5.5625 C 3.515625 -5.164062 3.328125 -4.632812 3.328125 -3.96875 C 3.328125 -3.300781 3.515625 -2.765625 3.890625 -2.359375 C 4.273438 -1.960938 4.765625 -1.765625 5.359375 -1.765625 Z M 5.359375 -1.765625 "/></g></g></g><g fill="#000000" fill-opacity="1"><g transform="translate(49.409421, 27.134436)"><g><path d="M 2.210938 0.417969 C 3.90625 0.648438 4.925781 0.00390625 5.128906 -1.472656 L 5.816406 -6.496094 L 2.128906 -7.003906 L 2.03125 -6.277344 L 4.917969 -5.882812 L 4.332031 -1.589844 C 4.1875 -0.550781 3.578125 -0.210938 2.308594 -0.382812 C 1.816406 -0.449219 1.390625 -0.582031 0.964844 -0.730469 L 0.675781 0.0234375 C 1.152344 0.199219 1.652344 0.339844 2.210938 0.417969 Z M 2.210938 0.417969 "/></g></g></g><g fill="#000000" fill-opacity="1"><g transform="translate(56.190137, 28.063116)"><g><path d="M 3.03125 0.515625 C 4.625 0.734375 5.503906 0.09375 5.746094 -1.675781 L 6.398438 -6.417969 L 5.597656 -6.527344 L 4.949219 -1.804688 C 4.769531 -0.484375 4.3125 -0.117188 3.140625 -0.28125 C 1.96875 -0.441406 1.617188 -0.90625 1.800781 -2.234375 L 2.445312 -6.957031 L 1.648438 -7.070312 L 1 -2.324219 C 0.75 -0.515625 1.480469 0.300781 3.03125 0.515625 Z M 3.03125 0.515625 "/></g></g></g><g fill="#000000" fill-opacity="1"><g transform="translate(62.970853, 28.991796)"><g><path d="M 3.097656 0.539062 C 4.402344 0.71875 5.578125 0.0742188 5.761719 -1.273438 C 5.980469 -2.878906 4.710938 -3.300781 3.523438 -3.765625 C 2.695312 -4.09375 2.167969 -4.269531 2.285156 -5.136719 C 2.394531 -5.925781 3.085938 -6.257812 3.921875 -6.140625 C 4.714844 -6.03125 5.332031 -5.523438 5.214844 -4.660156 L 6.007812 -4.550781 C 6.195312 -5.917969 5.253906 -6.6875 4.019531 -6.859375 C 2.730469 -7.035156 1.65625 -6.425781 1.488281 -5.214844 C 1.28125 -3.714844 2.503906 -3.355469 3.65625 -2.894531 C 4.5 -2.5625 5.097656 -2.328125 4.964844 -1.363281 C 4.839844 -0.453125 4.074219 -0.0625 3.195312 -0.183594 C 2.121094 -0.328125 1.5 -0.839844 1.640625 -1.871094 L 0.839844 -1.980469 C 0.640625 -0.503906 1.660156 0.339844 3.097656 0.539062 Z M 3.097656 0.539062 "/></g></g></g><g fill="#000000" fill-opacity="1"><g transform="translate(69.751569, 29.920476)"><g><path d="M 2.695312 0.367188 L 3.492188 0.476562 L 4.375 -5.957031 L 6.449219 -5.671875 L 6.546875 -6.398438 L 1.496094 -7.089844 L 1.398438 -6.363281 L 3.574219 -6.066406 Z M 2.695312 0.367188 "/></g></g></g><g fill="#000000" fill-opacity="1"><g transform="translate(76.532284, 30.849156)"><g/></g></g><g fill="#000000" fill-opacity="1"><g transform="translate(83.313, 31.777836)"><g><path d="M 0.75 0.101562 L 1.894531 0.257812 C 3.199219 0.4375 3.800781 0.367188 4.292969 0.171875 C 5.46875 -0.296875 6.066406 -1.476562 6.246094 -2.792969 C 6.429688 -4.128906 6.164062 -5.4375 5.125 -6.199219 C 4.710938 -6.507812 4.160156 -6.722656 2.875 -6.898438 L 1.730469 -7.058594 Z M 1.652344 -0.585938 L 2.414062 -6.15625 L 2.765625 -6.105469 C 3.933594 -5.945312 4.375 -5.761719 4.699219 -5.503906 C 5.441406 -4.917969 5.589844 -3.9375 5.449219 -2.902344 C 5.308594 -1.882812 4.914062 -0.992188 4.078125 -0.621094 C 3.6875 -0.4375 3.203125 -0.375 2.003906 -0.539062 Z M 1.652344 -0.585938 "/></g></g></g><g fill="#000000" fill-opacity="1"><g transform="translate(90.093716, 32.706517)"><g><path d="M 3.03125 0.515625 C 5.097656 0.796875 5.777344 -1.234375 5.992188 -2.824219 C 6.210938 -4.421875 6.105469 -6.5625 4.039062 -6.84375 C 1.972656 -7.128906 1.289062 -5.097656 1.070312 -3.5 C 0.851562 -1.90625 0.964844 0.230469 3.03125 0.515625 Z M 3.140625 -0.28125 C 1.691406 -0.476562 1.699219 -2.144531 1.867188 -3.390625 C 2.039062 -4.636719 2.484375 -6.246094 3.929688 -6.046875 C 5.375 -5.847656 5.371094 -4.183594 5.199219 -2.933594 C 5.03125 -1.6875 4.585938 -0.0820312 3.140625 -0.28125 Z M 3.140625 -0.28125 "/></g></g></g><g fill="#000000" fill-opacity="1"><g transform="translate(96.874432, 33.635197)"><g/></g></g><g fill="#000000" fill-opacity="1"><g transform="translate(103.655148, 34.563877)"><g><path d="M 1.007812 0.136719 L 5.074219 0.695312 L 5.175781 -0.0351562 L 3.542969 -0.257812 L 4.324219 -5.960938 L 5.957031 -5.738281 L 6.054688 -6.464844 L 1.988281 -7.023438 L 1.890625 -6.296875 L 3.527344 -6.070312 L 2.746094 -0.367188 L 1.109375 -0.59375 Z M 1.007812 0.136719 "/></g></g></g><g fill="#000000" fill-opacity="1"><g transform="translate(110.435863, 35.492557)"><g><path d="M 2.695312 0.367188 L 3.492188 0.476562 L 4.375 -5.957031 L 6.449219 -5.671875 L 6.546875 -6.398438 L 1.496094 -7.089844 L 1.398438 -6.363281 L 3.574219 -6.066406 Z M 2.695312 0.367188 "/></g></g></g><g fill="#000000" fill-opacity="1"><g transform="translate(117.216579, 36.421237)"><g><path d="M 3.011719 -1.800781 L 3.707031 -1.707031 L 3.945312 -3.445312 L 4.59375 -6.992188 L 3.527344 -7.136719 L 3.25 -3.539062 Z M 2.292969 0.3125 L 3.789062 0.519531 L 3.996094 -0.996094 L 2.5 -1.199219 Z M 2.292969 0.3125 "/></g></g></g><path fill="#000000" d="M 18.484375 27.269531 L 21.824219 31.015625 L 21.941406 31.148438 L 39.972656 15.535156 L 36.511719 11.65625 L 22.363281 23.910156 L 17.425781 18.375 L 13.546875 21.734375 Z M 18.484375 27.269531 " fill-opacity="1" fill-rule="nonzero"/><g clip-path="url(#ce8df121b0)"><path fill="#000000" d="M 33.757812 33.648438 L 10.929688 33.648438 L 10.929688 11.148438 L 33.757812 11.148438 L 33.757812 11.789062 L 36.917969 9.0625 C 36.234375 8.058594 35.078125 7.398438 33.757812 7.398438 L 10.929688 7.398438 C 8.832031 7.398438 7.125 9.078125 7.125 11.148438 L 7.125 33.648438 C 7.125 35.71875 8.832031 37.398438 10.929688 37.398438 L 33.757812 37.398438 C 35.859375 37.398438 37.5625 35.71875 37.5625 33.648438 L 37.5625 19.839844 L 33.757812 23.132812 Z M 33.757812 33.648438 " fill-opacity="1" fill-rule="nonzero"/></g></svg>