<svg xmlns="http://www.w3.org/2000/svg" xmlns:xlink="http://www.w3.org/1999/xlink" width="96" zoomAndPan="magnify" viewBox="0 0 72 72" height="96" preserveAspectRatio="xMidYMid meet" version="1.0"><defs><clipPath id="6edd91279a"><path d="M 7.199219 5 L 57.449219 5 L 57.449219 72 L 7.199219 72 Z M 7.199219 5 " clip-rule="nonzero"/></clipPath></defs><g clip-path="url(#6edd91279a)"><path fill="#f2ac34" d="M 52.769531 72.003906 L 11.886719 72.003906 C 9.308594 72.003906 7.222656 69.917969 7.222656 67.34375 L 7.222656 9.691406 C 7.222656 7.117188 9.308594 5.03125 11.886719 5.03125 L 52.769531 5.03125 C 55.347656 5.03125 57.433594 7.117188 57.433594 9.691406 L 57.433594 67.34375 C 57.433594 69.917969 55.347656 72.003906 52.769531 72.003906 " fill-opacity="1" fill-rule="nonzero"/></g><path fill="#e7e8e6" d="M 52.777344 65.71875 L 11.878906 65.71875 L 11.878906 11.320312 L 52.777344 11.320312 L 52.777344 65.71875 " fill-opacity="1" fill-rule="nonzero"/><path fill="#192746" d="M 45.144531 13.1875 L 19.511719 13.1875 L 19.511719 3.617188 C 19.511719 1.617188 21.132812 -0.00390625 23.136719 -0.00390625 L 41.519531 -0.00390625 C 43.523438 -0.00390625 45.144531 1.617188 45.144531 3.617188 L 45.144531 13.1875 " fill-opacity="1" fill-rule="nonzero"/><path fill="#ffffff" d="M 29.3125 2.207031 L 25.394531 2.207031 C 24.214844 2.207031 23.257812 3.160156 23.257812 4.339844 C 23.257812 5.515625 24.214844 6.472656 25.394531 6.472656 L 29.3125 6.472656 L 29.3125 2.207031 " fill-opacity="1" fill-rule="nonzero"/><path fill="#ffffff" d="M 39.265625 2.207031 L 35.347656 2.207031 L 35.347656 6.472656 L 39.265625 6.472656 C 40.445312 6.472656 41.398438 5.515625 41.398438 4.339844 C 41.398438 3.160156 40.445312 2.207031 39.265625 2.207031 " fill-opacity="1" fill-rule="nonzero"/><path stroke-linecap="round" transform="matrix(0.0363157, 0, 0, -0.0362903, -35.058836, 113.153229)" fill="none" stroke-linejoin="miter" d="M 1798.577251 2494.125124 L 2248.085439 2494.125124 " stroke="#192746" stroke-width="30" stroke-opacity="1" stroke-miterlimit="10"/><path stroke-linecap="round" transform="matrix(0.0363157, 0, 0, -0.0362903, -35.058836, 113.153229)" fill="none" stroke-linejoin="miter" d="M 1798.577251 2306.4029 L 2248.085439 2306.4029 " stroke="#192746" stroke-width="30" stroke-opacity="1" stroke-miterlimit="10"/><path stroke-linecap="round" transform="matrix(0.0363157, 0, 0, -0.0362903, -35.058836, 113.153229)" fill="none" stroke-linejoin="miter" d="M 1798.577251 2118.680676 L 2248.085439 2118.680676 " stroke="#192746" stroke-width="30" stroke-opacity="1" stroke-miterlimit="10"/><path stroke-linecap="round" transform="matrix(0.0363157, 0, 0, -0.0362903, -35.058836, 113.153229)" fill="none" stroke-linejoin="miter" d="M 1798.577251 1931.06609 L 2248.085439 1931.06609 " stroke="#192746" stroke-width="30" stroke-opacity="1" stroke-miterlimit="10"/><path stroke-linecap="round" transform="matrix(0.0363157, 0, 0, -0.0362903, -35.058836, 113.153229)" fill="none" stroke-linejoin="miter" d="M 1798.577251 1743.343866 L 2248.085439 1743.343866 " stroke="#192746" stroke-width="30" stroke-opacity="1" stroke-miterlimit="10"/><path stroke-linecap="round" transform="matrix(0.0363157, 0, 0, -0.0362903, -35.058836, 113.153229)" fill="none" stroke-linejoin="miter" d="M 1798.577251 1555.621641 L 2248.085439 1555.621641 " stroke="#192746" stroke-width="30" stroke-opacity="1" stroke-miterlimit="10"/><path stroke-linecap="round" transform="matrix(0.0363157, 0, 0, -0.0362903, -35.058836, 113.153229)" fill="none" stroke-linejoin="round" d="M 1584.74086 2329.975817 L 1420.598842 2329.975817 L 1420.598842 2494.125124 L 1584.74086 2494.125124 Z M 1584.74086 2329.975817 " stroke="#192746" stroke-width="30" stroke-opacity="1" stroke-miterlimit="10"/><path stroke-linecap="round" transform="matrix(0.0363157, 0, 0, -0.0362903, -35.058836, 113.153229)" fill="none" stroke-linejoin="round" d="M 1584.74086 1954.639007 L 1420.598842 1954.639007 L 1420.598842 2118.680676 L 1584.74086 2118.680676 Z M 1584.74086 1954.639007 " stroke="#192746" stroke-width="30" stroke-opacity="1" stroke-miterlimit="10"/><path stroke-linecap="round" transform="matrix(0.0363157, 0, 0, -0.0362903, -35.058836, 113.153229)" fill="none" stroke-linejoin="round" d="M 1584.74086 1579.194558 L 1420.598842 1579.194558 L 1420.598842 1743.343866 L 1584.74086 1743.343866 Z M 1584.74086 1579.194558 " stroke="#192746" stroke-width="30" stroke-opacity="1" stroke-miterlimit="10"/><path stroke-linecap="round" transform="matrix(0.0363157, 0, 0, -0.0362903, -35.058836, 113.153229)" fill="none" stroke-linejoin="round" d="M 1461.365438 2441.489707 L 1524.720384 2380.673734 L 1667.564815 2623.829987 " stroke="#d64151" stroke-width="30" stroke-opacity="1" stroke-miterlimit="10"/><path stroke-linecap="round" transform="matrix(0.0363157, 0, 0, -0.0362903, -35.058836, 113.153229)" fill="none" stroke-linejoin="round" d="M 1461.365438 2065.507064 L 1524.720384 2004.691091 L 1667.564815 2247.954983 " stroke="#d64151" stroke-width="30" stroke-opacity="1" stroke-miterlimit="10"/><path stroke-linecap="round" transform="matrix(0.0363157, 0, 0, -0.0362903, -35.058836, 113.153229)" fill="none" stroke-linejoin="round" d="M 1461.365438 1689.524421 L 1524.720384 1628.708448 L 1667.564815 1871.972339 " stroke="#d64151" stroke-width="30" stroke-opacity="1" stroke-miterlimit="10"/></svg>